<svg version="1.1" xmlns="http://www.w3.org/2000/svg" xmlns:xlink="http://www.w3.org/1999/xlink" width="231.70000000000002" height="162.5"><defs><linearGradient id="GMmqMwUWwPne" x1="674px" x2="1221.7000007152558px" y1="400px" y2="699.0000021457672px" gradientUnits="userSpaceOnUse"><stop offset="0" stop-color="rgb(211,211,211)" stop-opacity="1"/><stop offset="1" stop-color="rgb(29,122,218)" stop-opacity="1"/></linearGradient><linearGradient id="JuGqyVauAmZJ" x1="400px" x2="1498.2000007152558px" y1="439px" y2="1056.5000042915344px" gradientUnits="userSpaceOnUse"><stop offset="0" stop-color="rgb(211,211,211)" stop-opacity="1"/><stop offset="1" stop-color="rgb(29,122,218)" stop-opacity="1"/></linearGradient><linearGradient id="SuSpFyTUQuAf" x1="674px" x2="1221.7000007152558px" y1="400px" y2="832.000002861023px" gradientUnits="userSpaceOnUse"><stop offset="0" stop-color="rgb(211,211,211)" stop-opacity="1"/><stop offset="1" stop-color="rgb(29,122,218)" stop-opacity="1"/></linearGradient><linearGradient id="wLNLNpQkRZkL" x1="400px" x2="1498.2000007152558px" y1="439px" y2="1189.5000050067902px" gradientUnits="userSpaceOnUse"><stop offset="0" stop-color="rgb(211,211,211)" stop-opacity="1"/><stop offset="1" stop-color="rgb(29,122,218)" stop-opacity="1"/></linearGradient><linearGradient id="WmkeMhrTGKbQ" x1="674px" x2="1221.7000007152558px" y1="400px" y2="300px" gradientUnits="userSpaceOnUse"><stop offset="0" stop-color="rgb(211,211,211)" stop-opacity="1"/><stop offset="1" stop-color="rgb(29,122,218)" stop-opacity="1"/></linearGradient><linearGradient id="toEIOgDTBmXq" x1="674px" x2="1221.7000007152558px" y1="400px" y2="433.00000071525574px" gradientUnits="userSpaceOnUse"><stop offset="0" stop-color="rgb(211,211,211)" stop-opacity="1"/><stop offset="1" stop-color="rgb(29,122,218)" stop-opacity="1"/></linearGradient><linearGradient id="FaNfTDLeGRzI" x1="674px" x2="1221.7000007152558px" y1="400px" y2="566.0000014305115px" gradientUnits="userSpaceOnUse"><stop offset="0" stop-color="rgb(211,211,211)" stop-opacity="1"/><stop offset="1" stop-color="rgb(29,122,218)" stop-opacity="1"/></linearGradient><linearGradient id="tWIIyDknxLLC" x1="674px" x2="1221.7000007152558px" y1="400px" y2="965.0000035762787px" gradientUnits="userSpaceOnUse"><stop offset="0" stop-color="rgb(211,211,211)" stop-opacity="1"/><stop offset="1" stop-color="rgb(29,122,218)" stop-opacity="1"/></linearGradient></defs><g transform="translate(23.69999999999999,4.75) scale(0.1,0.1)"><path fill="rgb(244,236,255)" stroke="rgb(255,255,255)" paint-order="fill stroke markers" d=" M 921.1000003576279 -45.5 L 2069.2000007152556 -45.5 L 2069.2000007152556 -45.5 A 8 8 0 0 1 2077.2000007152556 -37.5 L 2077.2000007152556 1567.0000050067902 L 2077.2000007152556 1567.0000050067902 A 8 8 0 0 1 2069.2000007152556 1575.0000050067902 L -226.9999999999999 1575.0000050067902 L -226.9999999999999 1575.0000050067902 A 8 8 0 0 1 -234.9999999999999 1567.0000050067902 L -234.9999999999999 -37.5 L -234.9999999999999 -37.5 A 8 8 0 0 1 -226.9999999999999 -45.5 L 921.1000003576279 -45.5 Z" fill-opacity="1" stroke-opacity="1" stroke-miterlimit="10" stroke-width="2"/><text fill="rgb(0,0,0)" stroke="none" font-family="Avenir, Helvetica, Arial, sans-serif" font-size="32px" font-style="normal" font-weight="bold" text-decoration="normal" x="921.1000003576279" y="29.5" text-anchor="middle" dominant-baseline="text-after-edge" fill-opacity="1">.</text><path fill="rgb(255,255,255)" stroke="rgb(211,211,211)" paint-order="fill stroke markers" d=" M 1498.2000007152558 157.5 L 1867.7000007152558 157.5 L 1867.7000007152558 157.5 A 8 8 0 0 1 1875.7000007152558 165.5 L 1875.7000007152558 1365.5000050067902 L 1875.7000007152558 1365.5000050067902 A 8 8 0 0 1 1867.7000007152558 1373.5000050067902 L 1128.7000007152558 1373.5000050067902 L 1128.7000007152558 1373.5000050067902 A 8 8 0 0 1 1120.7000007152558 1365.5000050067902 L 1120.7000007152558 165.5 L 1120.7000007152558 165.5 A 8 8 0 0 1 1128.7000007152558 157.5 L 1498.2000007152558 157.5 Z" fill-opacity="1" stroke-opacity="1" stroke-miterlimit="10"/><text fill="rgb(0,0,0)" stroke="none" font-family="Avenir, Helvetica, Arial, sans-serif" font-size="32px" font-style="normal" font-weight="bold" text-decoration="normal" x="1498.2000007152558" y="232.5" text-anchor="middle" dominant-baseline="text-after-edge" fill-opacity="1">variables.tf</text><path fill="rgb(255,255,255)" stroke="rgb(211,211,211)" paint-order="fill stroke markers" d=" M 400 156 L 825.5 156 L 825.5 156 A 8 8 0 0 1 833.5 164 L 833.5 590.5 L 833.5 590.5 A 8 8 0 0 1 825.5 598.5 L -25.5 598.5 L -25.5 598.5 A 8 8 0 0 1 -33.5 590.5 L -33.5 164 L -33.5 164 A 8 8 0 0 1 -25.5 156 L 400 156 Z" fill-opacity="1" stroke-opacity="1" stroke-miterlimit="10"/><text fill="rgb(0,0,0)" stroke="none" font-family="Avenir, Helvetica, Arial, sans-serif" font-size="32px" font-style="normal" font-weight="bold" text-decoration="normal" x="400" y="231" text-anchor="middle" dominant-baseline="text-after-edge" fill-opacity="1">main.tf</text><path fill="rgb(255,255,255)" stroke="rgb(0,0,0)" paint-order="fill stroke markers" d=" M 400 305 L 722 305 L 722 305 A 8 8 0 0 1 730 313 L 730 487 L 730 487 A 8 8 0 0 1 722 495 L 78 495 L 78 495 A 8 8 0 0 1 70 487 L 70 313 L 70 313 A 8 8 0 0 1 78 305 L 400 305 Z" fill-opacity="1" stroke-opacity="1" stroke-miterlimit="10" stroke-width="5"/><rect fill="rgb(255,255,255)" stroke="none" x="274" y="256" width="252" height="96" fill-opacity="1"/><text fill="rgb(0,0,0)" stroke="none" font-family="Avenir, Helvetica, Arial, sans-serif" font-size="32px" font-style="normal" font-weight="bold" text-decoration="normal" x="400" y="320" text-anchor="middle" dominant-baseline="text-after-edge" fill-opacity="1">tfe_variable</text><path fill="none" stroke="url(#GMmqMwUWwPne)" paint-order="fill stroke markers" d=" M 674 400 L 947.8500003576279 400 L 947.8500003576279 699.0000021457672 L 1221.7000007152558 699.0000021457672" stroke-linejoin="round" stroke-miterlimit="10" stroke-width="10"/><path fill="none" stroke="url(#JuGqyVauAmZJ)" paint-order="fill stroke markers" d=" M 400 439 L 400 747.7500021457672 L 1498.2000007152558 747.7500021457672 L 1498.2000007152558 1056.5000042915344" stroke-linejoin="round" stroke-miterlimit="10" stroke-width="10"/><path fill="none" stroke="url(#SuSpFyTUQuAf)" paint-order="fill stroke markers" d=" M 674 400 L 947.8500003576279 400 L 947.8500003576279 832.000002861023 L 1221.7000007152558 832.000002861023" stroke-linejoin="round" stroke-miterlimit="10" stroke-width="10"/><path fill="none" stroke="url(#wLNLNpQkRZkL)" paint-order="fill stroke markers" d=" M 400 439 L 400 814.2500025033951 L 1498.2000007152558 814.2500025033951 L 1498.2000007152558 1189.5000050067902" stroke-linejoin="round" stroke-miterlimit="10" stroke-width="10"/><path fill="none" stroke="url(#WmkeMhrTGKbQ)" paint-order="fill stroke markers" d=" M 674 400 L 947.8500003576279 400 L 947.8500003576279 300 L 1221.7000007152558 300" stroke-linejoin="round" stroke-miterlimit="10" stroke-width="10"/><path fill="none" stroke="url(#toEIOgDTBmXq)" paint-order="fill stroke markers" d=" M 674 400 L 947.8500003576279 400 L 947.8500003576279 433.00000071525574 L 1221.7000007152558 433.00000071525574" stroke-linejoin="round" stroke-miterlimit="10" stroke-width="10"/><path fill="none" stroke="url(#FaNfTDLeGRzI)" paint-order="fill stroke markers" d=" M 674 400 L 947.8500003576279 400 L 947.8500003576279 566.0000014305115 L 1221.7000007152558 566.0000014305115" stroke-linejoin="round" stroke-miterlimit="10" stroke-width="10"/><path fill="none" stroke="url(#tWIIyDknxLLC)" paint-order="fill stroke markers" d=" M 674 400 L 947.8500003576279 400 L 947.8500003576279 965.0000035762787 L 1221.7000007152558 965.0000035762787" stroke-linejoin="round" stroke-miterlimit="10" stroke-width="10"/><path fill="rgb(225,240,255)" stroke="rgb(29,122,218)" paint-order="fill stroke markers" d=" M 1498.2000007152558 261 L 1764.2000007152558 261 L 1764.2000007152558 261 A 8 8 0 0 1 1772.2000007152558 269 L 1772.2000007152558 331 L 1772.2000007152558 331 A 8 8 0 0 1 1764.2000007152558 339 L 1232.2000007152558 339 L 1232.2000007152558 339 A 8 8 0 0 1 1224.2000007152558 331 L 1224.2000007152558 269 L 1224.2000007152558 269 A 8 8 0 0 1 1232.2000007152558 261 L 1498.2000007152558 261 Z" fill-opacity="1" stroke-opacity="1" stroke-miterlimit="10" stroke-width="5"/><text fill="rgb(0,0,0)" stroke="none" font-family="Avenir, Helvetica, Arial, sans-serif" font-size="32px" font-style="normal" font-weight="bold" text-decoration="normal" x="1498.2000007152558" y="316" text-anchor="middle" dominant-baseline="text-after-edge" fill-opacity="1">description</text><path fill="rgb(225,240,255)" stroke="rgb(29,122,218)" paint-order="fill stroke markers" d=" M 1498.2000007152558 394.00000071525574 L 1764.2000007152558 394.00000071525574 L 1764.2000007152558 394.00000071525574 A 8 8 0 0 1 1772.2000007152558 402.00000071525574 L 1772.2000007152558 464.00000071525574 L 1772.2000007152558 464.00000071525574 A 8 8 0 0 1 1764.2000007152558 472.00000071525574 L 1232.2000007152558 472.00000071525574 L 1232.2000007152558 472.00000071525574 A 8 8 0 0 1 1224.2000007152558 464.00000071525574 L 1224.2000007152558 402.00000071525574 L 1224.2000007152558 402.00000071525574 A 8 8 0 0 1 1232.2000007152558 394.00000071525574 L 1498.2000007152558 394.00000071525574 Z" fill-opacity="1" stroke-opacity="1" stroke-miterlimit="10" stroke-width="5"/><text fill="rgb(0,0,0)" stroke="none" font-family="Avenir, Helvetica, Arial, sans-serif" font-size="32px" font-style="normal" font-weight="bold" text-decoration="normal" x="1498.2000007152558" y="449.00000071525574" text-anchor="middle" dominant-baseline="text-after-edge" fill-opacity="1">description_suffix</text><path fill="rgb(225,240,255)" stroke="rgb(29,122,218)" paint-order="fill stroke markers" d=" M 1498.2000007152558 527.0000014305115 L 1764.2000007152558 527.0000014305115 L 1764.2000007152558 527.0000014305115 A 8 8 0 0 1 1772.2000007152558 535.0000014305115 L 1772.2000007152558 597.0000014305115 L 1772.2000007152558 597.0000014305115 A 8 8 0 0 1 1764.2000007152558 605.0000014305115 L 1232.2000007152558 605.0000014305115 L 1232.2000007152558 605.0000014305115 A 8 8 0 0 1 1224.2000007152558 597.0000014305115 L 1224.2000007152558 535.0000014305115 L 1224.2000007152558 535.0000014305115 A 8 8 0 0 1 1232.2000007152558 527.0000014305115 L 1498.2000007152558 527.0000014305115 Z" fill-opacity="1" stroke-opacity="1" stroke-miterlimit="10" stroke-width="5"/><text fill="rgb(0,0,0)" stroke="none" font-family="Avenir, Helvetica, Arial, sans-serif" font-size="32px" font-style="normal" font-weight="bold" text-decoration="normal" x="1498.2000007152558" y="582.0000014305115" text-anchor="middle" dominant-baseline="text-after-edge" fill-opacity="1">hcl</text><path fill="rgb(225,240,255)" stroke="rgb(29,122,218)" paint-order="fill stroke markers" d=" M 1498.2000007152558 660.0000021457672 L 1764.2000007152558 660.0000021457672 L 1764.2000007152558 660.0000021457672 A 8 8 0 0 1 1772.2000007152558 668.0000021457672 L 1772.2000007152558 730.0000021457672 L 1772.2000007152558 730.0000021457672 A 8 8 0 0 1 1764.2000007152558 738.0000021457672 L 1232.2000007152558 738.0000021457672 L 1232.2000007152558 738.0000021457672 A 8 8 0 0 1 1224.2000007152558 730.0000021457672 L 1224.2000007152558 668.0000021457672 L 1224.2000007152558 668.0000021457672 A 8 8 0 0 1 1232.2000007152558 660.0000021457672 L 1498.2000007152558 660.0000021457672 Z" fill-opacity="1" stroke-opacity="1" stroke-miterlimit="10" stroke-width="5"/><text fill="rgb(0,0,0)" stroke="none" font-family="Avenir, Helvetica, Arial, sans-serif" font-size="32px" font-style="normal" font-weight="bold" text-decoration="normal" x="1498.2000007152558" y="715.0000021457672" text-anchor="middle" dominant-baseline="text-after-edge" fill-opacity="1">sensitive</text><path fill="rgb(225,240,255)" stroke="rgb(29,122,218)" paint-order="fill stroke markers" d=" M 1498.2000007152558 793.000002861023 L 1764.2000007152558 793.000002861023 L 1764.2000007152558 793.000002861023 A 8 8 0 0 1 1772.2000007152558 801.000002861023 L 1772.2000007152558 863.000002861023 L 1772.2000007152558 863.000002861023 A 8 8 0 0 1 1764.2000007152558 871.000002861023 L 1232.2000007152558 871.000002861023 L 1232.2000007152558 871.000002861023 A 8 8 0 0 1 1224.2000007152558 863.000002861023 L 1224.2000007152558 801.000002861023 L 1224.2000007152558 801.000002861023 A 8 8 0 0 1 1232.2000007152558 793.000002861023 L 1498.2000007152558 793.000002861023 Z" fill-opacity="1" stroke-opacity="1" stroke-miterlimit="10" stroke-width="5"/><text fill="rgb(0,0,0)" stroke="none" font-family="Avenir, Helvetica, Arial, sans-serif" font-size="32px" font-style="normal" font-weight="bold" text-decoration="normal" x="1498.2000007152558" y="848.000002861023" text-anchor="middle" dominant-baseline="text-after-edge" fill-opacity="1">workspace_id</text><path fill="rgb(225,240,255)" stroke="rgb(29,122,218)" paint-order="fill stroke markers" d=" M 1498.2000007152558 926.0000035762787 L 1764.2000007152558 926.0000035762787 L 1764.2000007152558 926.0000035762787 A 8 8 0 0 1 1772.2000007152558 934.0000035762787 L 1772.2000007152558 996.0000035762787 L 1772.2000007152558 996.0000035762787 A 8 8 0 0 1 1764.2000007152558 1004.0000035762787 L 1232.2000007152558 1004.0000035762787 L 1232.2000007152558 1004.0000035762787 A 8 8 0 0 1 1224.2000007152558 996.0000035762787 L 1224.2000007152558 934.0000035762787 L 1224.2000007152558 934.0000035762787 A 8 8 0 0 1 1232.2000007152558 926.0000035762787 L 1498.2000007152558 926.0000035762787 Z" fill-opacity="1" stroke-opacity="1" stroke-miterlimit="10" stroke-width="5"/><text fill="rgb(0,0,0)" stroke="none" font-family="Avenir, Helvetica, Arial, sans-serif" font-size="32px" font-style="normal" font-weight="bold" text-decoration="normal" x="1498.2000007152558" y="981.0000035762787" text-anchor="middle" dominant-baseline="text-after-edge" fill-opacity="1">key</text><path fill="rgb(225,240,255)" stroke="rgb(29,122,218)" paint-order="fill stroke markers" d=" M 1498.2000007152558 1059.0000042915344 L 1764.2000007152558 1059.0000042915344 L 1764.2000007152558 1059.0000042915344 A 8 8 0 0 1 1772.2000007152558 1067.0000042915344 L 1772.2000007152558 1129.0000042915344 L 1772.2000007152558 1129.0000042915344 A 8 8 0 0 1 1764.2000007152558 1137.0000042915344 L 1232.2000007152558 1137.0000042915344 L 1232.2000007152558 1137.0000042915344 A 8 8 0 0 1 1224.2000007152558 1129.0000042915344 L 1224.2000007152558 1067.0000042915344 L 1224.2000007152558 1067.0000042915344 A 8 8 0 0 1 1232.2000007152558 1059.0000042915344 L 1498.2000007152558 1059.0000042915344 Z" fill-opacity="1" stroke-opacity="1" stroke-miterlimit="10" stroke-width="5"/><text fill="rgb(0,0,0)" stroke="none" font-family="Avenir, Helvetica, Arial, sans-serif" font-size="32px" font-style="normal" font-weight="bold" text-decoration="normal" x="1498.2000007152558" y="1114.0000042915344" text-anchor="middle" dominant-baseline="text-after-edge" fill-opacity="1">value</text><path fill="rgb(225,240,255)" stroke="rgb(29,122,218)" paint-order="fill stroke markers" d=" M 1498.2000007152558 1192.0000050067902 L 1764.2000007152558 1192.0000050067902 L 1764.2000007152558 1192.0000050067902 A 8 8 0 0 1 1772.2000007152558 1200.0000050067902 L 1772.2000007152558 1262.0000050067902 L 1772.2000007152558 1262.0000050067902 A 8 8 0 0 1 1764.2000007152558 1270.0000050067902 L 1232.2000007152558 1270.0000050067902 L 1232.2000007152558 1270.0000050067902 A 8 8 0 0 1 1224.2000007152558 1262.0000050067902 L 1224.2000007152558 1200.0000050067902 L 1224.2000007152558 1200.0000050067902 A 8 8 0 0 1 1232.2000007152558 1192.0000050067902 L 1498.2000007152558 1192.0000050067902 Z" fill-opacity="1" stroke-opacity="1" stroke-miterlimit="10" stroke-width="5"/><text fill="rgb(0,0,0)" stroke="none" font-family="Avenir, Helvetica, Arial, sans-serif" font-size="32px" font-style="normal" font-weight="bold" text-decoration="normal" x="1498.2000007152558" y="1247.0000050067902" text-anchor="middle" dominant-baseline="text-after-edge" fill-opacity="1">category</text><path fill="rgb(40,167,69)" stroke="none" paint-order="stroke fill markers" d=" M 400 361 L 666 361 L 666 361 A 8 8 0 0 1 674 369 L 674 431 L 674 431 A 8 8 0 0 1 666 439 L 134 439 L 134 439 A 8 8 0 0 1 126 431 L 126 369 L 126 369 A 8 8 0 0 1 134 361 L 400 361 Z" fill-opacity="1"/><text fill="rgb(255,255,255)" stroke="none" font-family="Avenir, Helvetica, Arial, sans-serif" font-size="32px" font-style="normal" font-weight="bold" text-decoration="normal" x="400" y="416" text-anchor="middle" dominant-baseline="text-after-edge" fill-opacity="1">default</text><g transform="scale(10,10) translate(-23.69999999999999,-4.75)"/></g></svg>