<svg version="1.1" xmlns="http://www.w3.org/2000/svg" xmlns:xlink="http://www.w3.org/1999/xlink" width="464.40000000000003" height="470.6"><defs><linearGradient id="makpkApUMnzR" x1="1403.0000007152557px" x2="300px" y1="439px" y2="1518.7000035762787px" gradientUnits="userSpaceOnUse"><stop offset="0" stop-color="rgb(211,211,211)" stop-opacity="1"/><stop offset="1" stop-color="rgb(29,122,218)" stop-opacity="1"/></linearGradient><linearGradient id="UuoRlavsSsXO" x1="1403.0000007152557px" x2="300px" y1="439px" y2="1651.7000042915345px" gradientUnits="userSpaceOnUse"><stop offset="0" stop-color="rgb(211,211,211)" stop-opacity="1"/><stop offset="1" stop-color="rgb(29,122,218)" stop-opacity="1"/></linearGradient><linearGradient id="qxTrPSAMwcbB" x1="1403.0000007152557px" x2="300px" y1="439px" y2="1784.7000050067902px" gradientUnits="userSpaceOnUse"><stop offset="0" stop-color="rgb(211,211,211)" stop-opacity="1"/><stop offset="1" stop-color="rgb(29,122,218)" stop-opacity="1"/></linearGradient><linearGradient id="bQafIWmvZTQN" x1="1403.0000007152557px" x2="300px" y1="439px" y2="1917.700005722046px" gradientUnits="userSpaceOnUse"><stop offset="0" stop-color="rgb(211,211,211)" stop-opacity="1"/><stop offset="1" stop-color="rgb(29,122,218)" stop-opacity="1"/></linearGradient><linearGradient id="ncvmbfWRIwWz" x1="1403.0000007152557px" x2="300px" y1="439px" y2="1252.7000021457673px" gradientUnits="userSpaceOnUse"><stop offset="0" stop-color="rgb(211,211,211)" stop-opacity="1"/><stop offset="1" stop-color="rgb(29,122,218)" stop-opacity="1"/></linearGradient><linearGradient id="vZRAFXKFvqVg" x1="1129.0000007152557px" x2="576.5px" y1="400px" y2="1028.2000007152558px" gradientUnits="userSpaceOnUse"><stop offset="0" stop-color="rgb(211,211,211)" stop-opacity="1"/><stop offset="1" stop-color="rgb(29,122,218)" stop-opacity="1"/></linearGradient><linearGradient id="llsHelXocDaO" x1="1403.0000007152557px" x2="300px" y1="439px" y2="1385.700002861023px" gradientUnits="userSpaceOnUse"><stop offset="0" stop-color="rgb(211,211,211)" stop-opacity="1"/><stop offset="1" stop-color="rgb(29,122,218)" stop-opacity="1"/></linearGradient><linearGradient id="uNRFcaGzkPHt" x1="1403.0000007152557px" x2="300px" y1="439px" y2="1119.7000014305115px" gradientUnits="userSpaceOnUse"><stop offset="0" stop-color="rgb(211,211,211)" stop-opacity="1"/><stop offset="1" stop-color="rgb(29,122,218)" stop-opacity="1"/></linearGradient><linearGradient id="kmsceldKpHKD" x1="576.5px" x2="1129.0000007152557px" y1="300px" y2="400px" gradientUnits="userSpaceOnUse"><stop offset="0" stop-color="rgb(255,193,7)" stop-opacity="1"/><stop offset="1" stop-color="rgb(211,211,211)" stop-opacity="1"/></linearGradient></defs><g transform="translate(56.2,9.5) scale(0.2,0.2)"><path fill="rgb(244,236,255)" stroke="rgb(255,255,255)" paint-order="fill stroke markers" d=" M 879.5000003576279 -45.5 L 2030.0000007152557 -45.5 L 2030.0000007152557 -45.5 A 8 8 0 0 1 2038.0000007152557 -37.5 L 2038.0000007152557 2295.2000057220457 L 2038.0000007152557 2295.2000057220457 A 8 8 0 0 1 2030.0000007152557 2303.2000057220457 L -271 2303.2000057220457 L -271 2303.2000057220457 A 8 8 0 0 1 -279 2295.2000057220457 L -279 -37.5 L -279 -37.5 A 8 8 0 0 1 -271 -45.5 L 879.5000003576279 -45.5 Z" fill-opacity="1" stroke-opacity="1" stroke-miterlimit="10" stroke-width="2"/><text fill="rgb(0,0,0)" stroke="none" font-family="Avenir, Helvetica, Arial, sans-serif" font-size="32px" font-style="normal" font-weight="bold" text-decoration="normal" x="879.5000003576279" y="29.5" text-anchor="middle" dominant-baseline="text-after-edge" fill-opacity="1">.</text><path fill="rgb(255,255,255)" stroke="rgb(211,211,211)" paint-order="fill stroke markers" d=" M 300 157.5 L 669.5 157.5 L 669.5 157.5 A 8 8 0 0 1 677.5 165.5 L 677.5 434.5 L 677.5 434.5 A 8 8 0 0 1 669.5 442.5 L -69.5 442.5 L -69.5 442.5 A 8 8 0 0 1 -77.5 434.5 L -77.5 165.5 L -77.5 165.5 A 8 8 0 0 1 -69.5 157.5 L 300 157.5 Z" fill-opacity="1" stroke-opacity="1" stroke-miterlimit="10"/><text fill="rgb(0,0,0)" stroke="none" font-family="Avenir, Helvetica, Arial, sans-serif" font-size="32px" font-style="normal" font-weight="bold" text-decoration="normal" x="300" y="232.5" text-anchor="middle" dominant-baseline="text-after-edge" fill-opacity="1">outputs.tf</text><path fill="rgb(255,255,255)" stroke="rgb(211,211,211)" paint-order="fill stroke markers" d=" M 300 885.7000007152558 L 669.5 885.7000007152558 L 669.5 885.7000007152558 A 8 8 0 0 1 677.5 893.7000007152558 L 677.5 2093.7000057220457 L 677.5 2093.7000057220457 A 8 8 0 0 1 669.5 2101.7000057220457 L -69.5 2101.7000057220457 L -69.5 2101.7000057220457 A 8 8 0 0 1 -77.5 2093.7000057220457 L -77.5 893.7000007152558 L -77.5 893.7000007152558 A 8 8 0 0 1 -69.5 885.7000007152558 L 300 885.7000007152558 Z" fill-opacity="1" stroke-opacity="1" stroke-miterlimit="10"/><text fill="rgb(0,0,0)" stroke="none" font-family="Avenir, Helvetica, Arial, sans-serif" font-size="32px" font-style="normal" font-weight="bold" text-decoration="normal" x="300" y="960.7000007152558" text-anchor="middle" dominant-baseline="text-after-edge" fill-opacity="1">variables.tf</text><path fill="rgb(255,255,255)" stroke="rgb(211,211,211)" paint-order="fill stroke markers" d=" M 1403.0000007152557 156 L 1828.5000007152557 156 L 1828.5000007152557 156 A 8 8 0 0 1 1836.5000007152557 164 L 1836.5000007152557 590.5 L 1836.5000007152557 590.5 A 8 8 0 0 1 1828.5000007152557 598.5 L 977.5000007152557 598.5 L 977.5000007152557 598.5 A 8 8 0 0 1 969.5000007152557 590.5 L 969.5000007152557 164 L 969.5000007152557 164 A 8 8 0 0 1 977.5000007152557 156 L 1403.0000007152557 156 Z" fill-opacity="1" stroke-opacity="1" stroke-miterlimit="10"/><text fill="rgb(0,0,0)" stroke="none" font-family="Avenir, Helvetica, Arial, sans-serif" font-size="32px" font-style="normal" font-weight="bold" text-decoration="normal" x="1403.0000007152557" y="231" text-anchor="middle" dominant-baseline="text-after-edge" fill-opacity="1">main.tf</text><path fill="rgb(255,255,255)" stroke="rgb(0,0,0)" paint-order="fill stroke markers" d=" M 1403.0000007152557 305 L 1725.0000007152557 305 L 1725.0000007152557 305 A 8 8 0 0 1 1733.0000007152557 313 L 1733.0000007152557 487 L 1733.0000007152557 487 A 8 8 0 0 1 1725.0000007152557 495 L 1081.0000007152557 495 L 1081.0000007152557 495 A 8 8 0 0 1 1073.0000007152557 487 L 1073.0000007152557 313 L 1073.0000007152557 313 A 8 8 0 0 1 1081.0000007152557 305 L 1403.0000007152557 305 Z" fill-opacity="1" stroke-opacity="1" stroke-miterlimit="10" stroke-width="5"/><rect fill="rgb(255,255,255)" stroke="none" x="1282.5000007152557" y="256" width="241" height="96" fill-opacity="1"/><text fill="rgb(0,0,0)" stroke="none" font-family="Avenir, Helvetica, Arial, sans-serif" font-size="32px" font-style="normal" font-weight="bold" text-decoration="normal" x="1403.0000007152557" y="320" text-anchor="middle" dominant-baseline="text-after-edge" fill-opacity="1">tfe_variable</text><path fill="none" stroke="url(#makpkApUMnzR)" paint-order="fill stroke markers" d=" M 1403.0000007152557 439 L 1403.0000007152557 978.8500017881394 L 300 978.8500017881394 L 300 1518.7000035762787" stroke-linejoin="round" stroke-miterlimit="10" stroke-width="10"/><path fill="none" stroke="url(#UuoRlavsSsXO)" paint-order="fill stroke markers" d=" M 1403.0000007152557 439 L 1403.0000007152557 1045.3500021457671 L 300 1045.3500021457671 L 300 1651.7000042915345" stroke-linejoin="round" stroke-miterlimit="10" stroke-width="10"/><path fill="none" stroke="url(#qxTrPSAMwcbB)" paint-order="fill stroke markers" d=" M 1403.0000007152557 439 L 1403.0000007152557 1111.850002503395 L 300 1111.850002503395 L 300 1784.7000050067902" stroke-linejoin="round" stroke-miterlimit="10" stroke-width="10"/><path fill="none" stroke="url(#bQafIWmvZTQN)" paint-order="fill stroke markers" d=" M 1403.0000007152557 439 L 1403.0000007152557 1178.3500028610229 L 300 1178.3500028610229 L 300 1917.700005722046" stroke-linejoin="round" stroke-miterlimit="10" stroke-width="10"/><path fill="none" stroke="url(#ncvmbfWRIwWz)" paint-order="fill stroke markers" d=" M 1403.0000007152557 439 L 1403.0000007152557 845.8500010728836 L 300 845.8500010728836 L 300 1252.7000021457673" stroke-linejoin="round" stroke-miterlimit="10" stroke-width="10"/><path fill="none" stroke="url(#vZRAFXKFvqVg)" paint-order="fill stroke markers" d=" M 1129.0000007152557 400 L 852.7500003576279 400 L 852.7500003576279 1028.2000007152558 L 576.5 1028.2000007152558" stroke-linejoin="round" stroke-miterlimit="10" stroke-width="10"/><path fill="none" stroke="url(#llsHelXocDaO)" paint-order="fill stroke markers" d=" M 1403.0000007152557 439 L 1403.0000007152557 912.3500014305115 L 300 912.3500014305115 L 300 1385.700002861023" stroke-linejoin="round" stroke-miterlimit="10" stroke-width="10"/><path fill="none" stroke="url(#uNRFcaGzkPHt)" paint-order="fill stroke markers" d=" M 1403.0000007152557 439 L 1403.0000007152557 779.3500007152558 L 300 779.3500007152558 L 300 1119.7000014305115" stroke-linejoin="round" stroke-miterlimit="10" stroke-width="10"/><path fill="none" stroke="url(#kmsceldKpHKD)" paint-order="fill stroke markers" d=" M 576.5 300 L 852.7500003576279 300 L 852.7500003576279 400 L 1129.0000007152557 400" stroke-linejoin="round" stroke-miterlimit="10" stroke-width="10"/><path fill="rgb(255,247,224)" stroke="rgb(255,193,7)" paint-order="fill stroke markers" d=" M 300 261 L 566 261 L 566 261 A 8 8 0 0 1 574 269 L 574 331 L 574 331 A 8 8 0 0 1 566 339 L 34 339 L 34 339 A 8 8 0 0 1 26 331 L 26 269 L 26 269 A 8 8 0 0 1 34 261 L 300 261 Z" fill-opacity="1" stroke-opacity="1" stroke-miterlimit="10" stroke-width="5"/><text fill="rgb(0,0,0)" stroke="none" font-family="Avenir, Helvetica, Arial, sans-serif" font-size="32px" font-style="normal" font-weight="bold" text-decoration="normal" x="300" y="316" text-anchor="middle" dominant-baseline="text-after-edge" fill-opacity="1">id</text><path fill="rgb(225,240,255)" stroke="rgb(29,122,218)" paint-order="fill stroke markers" d=" M 300 989.2000007152558 L 566 989.2000007152558 L 566 989.2000007152558 A 8 8 0 0 1 574 997.2000007152558 L 574 1059.2000007152558 L 574 1059.2000007152558 A 8 8 0 0 1 566 1067.2000007152558 L 34 1067.2000007152558 L 34 1067.2000007152558 A 8 8 0 0 1 26 1059.2000007152558 L 26 997.2000007152558 L 26 997.2000007152558 A 8 8 0 0 1 34 989.2000007152558 L 300 989.2000007152558 Z" fill-opacity="1" stroke-opacity="1" stroke-miterlimit="10" stroke-width="5"/><text fill="rgb(0,0,0)" stroke="none" font-family="Avenir, Helvetica, Arial, sans-serif" font-size="32px" font-style="normal" font-weight="bold" text-decoration="normal" x="300" y="1044.2000007152558" text-anchor="middle" dominant-baseline="text-after-edge" fill-opacity="1">sensitive</text><path fill="rgb(225,240,255)" stroke="rgb(29,122,218)" paint-order="fill stroke markers" d=" M 300 1122.2000014305115 L 566 1122.2000014305115 L 566 1122.2000014305115 A 8 8 0 0 1 574 1130.2000014305115 L 574 1192.2000014305115 L 574 1192.2000014305115 A 8 8 0 0 1 566 1200.2000014305115 L 34 1200.2000014305115 L 34 1200.2000014305115 A 8 8 0 0 1 26 1192.2000014305115 L 26 1130.2000014305115 L 26 1130.2000014305115 A 8 8 0 0 1 34 1122.2000014305115 L 300 1122.2000014305115 Z" fill-opacity="1" stroke-opacity="1" stroke-miterlimit="10" stroke-width="5"/><text fill="rgb(0,0,0)" stroke="none" font-family="Avenir, Helvetica, Arial, sans-serif" font-size="32px" font-style="normal" font-weight="bold" text-decoration="normal" x="300" y="1177.2000014305115" text-anchor="middle" dominant-baseline="text-after-edge" fill-opacity="1">workspace_id</text><path fill="rgb(225,240,255)" stroke="rgb(29,122,218)" paint-order="fill stroke markers" d=" M 300 1255.2000021457673 L 566 1255.2000021457673 L 566 1255.2000021457673 A 8 8 0 0 1 574 1263.2000021457673 L 574 1325.2000021457673 L 574 1325.2000021457673 A 8 8 0 0 1 566 1333.2000021457673 L 34 1333.2000021457673 L 34 1333.2000021457673 A 8 8 0 0 1 26 1325.2000021457673 L 26 1263.2000021457673 L 26 1263.2000021457673 A 8 8 0 0 1 34 1255.2000021457673 L 300 1255.2000021457673 Z" fill-opacity="1" stroke-opacity="1" stroke-miterlimit="10" stroke-width="5"/><text fill="rgb(0,0,0)" stroke="none" font-family="Avenir, Helvetica, Arial, sans-serif" font-size="32px" font-style="normal" font-weight="bold" text-decoration="normal" x="300" y="1310.2000021457673" text-anchor="middle" dominant-baseline="text-after-edge" fill-opacity="1">key</text><path fill="rgb(225,240,255)" stroke="rgb(29,122,218)" paint-order="fill stroke markers" d=" M 300 1388.200002861023 L 566 1388.200002861023 L 566 1388.200002861023 A 8 8 0 0 1 574 1396.200002861023 L 574 1458.200002861023 L 574 1458.200002861023 A 8 8 0 0 1 566 1466.200002861023 L 34 1466.200002861023 L 34 1466.200002861023 A 8 8 0 0 1 26 1458.200002861023 L 26 1396.200002861023 L 26 1396.200002861023 A 8 8 0 0 1 34 1388.200002861023 L 300 1388.200002861023 Z" fill-opacity="1" stroke-opacity="1" stroke-miterlimit="10" stroke-width="5"/><text fill="rgb(0,0,0)" stroke="none" font-family="Avenir, Helvetica, Arial, sans-serif" font-size="32px" font-style="normal" font-weight="bold" text-decoration="normal" x="300" y="1443.200002861023" text-anchor="middle" dominant-baseline="text-after-edge" fill-opacity="1">value</text><path fill="rgb(225,240,255)" stroke="rgb(29,122,218)" paint-order="fill stroke markers" d=" M 300 1521.2000035762787 L 566 1521.2000035762787 L 566 1521.2000035762787 A 8 8 0 0 1 574 1529.2000035762787 L 574 1591.2000035762787 L 574 1591.2000035762787 A 8 8 0 0 1 566 1599.2000035762787 L 34 1599.2000035762787 L 34 1599.2000035762787 A 8 8 0 0 1 26 1591.2000035762787 L 26 1529.2000035762787 L 26 1529.2000035762787 A 8 8 0 0 1 34 1521.2000035762787 L 300 1521.2000035762787 Z" fill-opacity="1" stroke-opacity="1" stroke-miterlimit="10" stroke-width="5"/><text fill="rgb(0,0,0)" stroke="none" font-family="Avenir, Helvetica, Arial, sans-serif" font-size="32px" font-style="normal" font-weight="bold" text-decoration="normal" x="300" y="1576.2000035762787" text-anchor="middle" dominant-baseline="text-after-edge" fill-opacity="1">category</text><path fill="rgb(225,240,255)" stroke="rgb(29,122,218)" paint-order="fill stroke markers" d=" M 300 1654.2000042915345 L 566 1654.2000042915345 L 566 1654.2000042915345 A 8 8 0 0 1 574 1662.2000042915345 L 574 1724.2000042915345 L 574 1724.2000042915345 A 8 8 0 0 1 566 1732.2000042915345 L 34 1732.2000042915345 L 34 1732.2000042915345 A 8 8 0 0 1 26 1724.2000042915345 L 26 1662.2000042915345 L 26 1662.2000042915345 A 8 8 0 0 1 34 1654.2000042915345 L 300 1654.2000042915345 Z" fill-opacity="1" stroke-opacity="1" stroke-miterlimit="10" stroke-width="5"/><text fill="rgb(0,0,0)" stroke="none" font-family="Avenir, Helvetica, Arial, sans-serif" font-size="32px" font-style="normal" font-weight="bold" text-decoration="normal" x="300" y="1709.2000042915345" text-anchor="middle" dominant-baseline="text-after-edge" fill-opacity="1">description</text><path fill="rgb(225,240,255)" stroke="rgb(29,122,218)" paint-order="fill stroke markers" d=" M 300 1787.2000050067902 L 566 1787.2000050067902 L 566 1787.2000050067902 A 8 8 0 0 1 574 1795.2000050067902 L 574 1857.2000050067902 L 574 1857.2000050067902 A 8 8 0 0 1 566 1865.2000050067902 L 34 1865.2000050067902 L 34 1865.2000050067902 A 8 8 0 0 1 26 1857.2000050067902 L 26 1795.2000050067902 L 26 1795.2000050067902 A 8 8 0 0 1 34 1787.2000050067902 L 300 1787.2000050067902 Z" fill-opacity="1" stroke-opacity="1" stroke-miterlimit="10" stroke-width="5"/><text fill="rgb(0,0,0)" stroke="none" font-family="Avenir, Helvetica, Arial, sans-serif" font-size="32px" font-style="normal" font-weight="bold" text-decoration="normal" x="300" y="1842.2000050067902" text-anchor="middle" dominant-baseline="text-after-edge" fill-opacity="1">description_suffix</text><path fill="rgb(225,240,255)" stroke="rgb(29,122,218)" paint-order="fill stroke markers" d=" M 300 1920.200005722046 L 566 1920.200005722046 L 566 1920.200005722046 A 8 8 0 0 1 574 1928.200005722046 L 574 1990.200005722046 L 574 1990.200005722046 A 8 8 0 0 1 566 1998.200005722046 L 34 1998.200005722046 L 34 1998.200005722046 A 8 8 0 0 1 26 1990.200005722046 L 26 1928.200005722046 L 26 1928.200005722046 A 8 8 0 0 1 34 1920.200005722046 L 300 1920.200005722046 Z" fill-opacity="1" stroke-opacity="1" stroke-miterlimit="10" stroke-width="5"/><text fill="rgb(0,0,0)" stroke="none" font-family="Avenir, Helvetica, Arial, sans-serif" font-size="32px" font-style="normal" font-weight="bold" text-decoration="normal" x="300" y="1975.200005722046" text-anchor="middle" dominant-baseline="text-after-edge" fill-opacity="1">hcl</text><path fill="rgb(40,167,69)" stroke="none" paint-order="stroke fill markers" d=" M 1403.0000007152557 361 L 1669.0000007152557 361 L 1669.0000007152557 361 A 8 8 0 0 1 1677.0000007152557 369 L 1677.0000007152557 431 L 1677.0000007152557 431 A 8 8 0 0 1 1669.0000007152557 439 L 1137.0000007152557 439 L 1137.0000007152557 439 A 8 8 0 0 1 1129.0000007152557 431 L 1129.0000007152557 369 L 1129.0000007152557 369 A 8 8 0 0 1 1137.0000007152557 361 L 1403.0000007152557 361 Z" fill-opacity="1"/><text fill="rgb(255,255,255)" stroke="none" font-family="Avenir, Helvetica, Arial, sans-serif" font-size="32px" font-style="normal" font-weight="bold" text-decoration="normal" x="1403.0000007152557" y="416" text-anchor="middle" dominant-baseline="text-after-edge" fill-opacity="1">default</text><g transform="scale(5,5) translate(-56.2,-9.5)"/></g></svg>